<svg xmlns="http://www.w3.org/2000/svg" viewBox="0 0 400 300">
  <defs>
    <linearGradient id="pressGrad" x1="0%" y1="0%" x2="100%" y2="100%">
      <stop offset="0%" style="stop-color:#4facfe;stop-opacity:1" />
      <stop offset="100%" style="stop-color:#00f2fe;stop-opacity:1" />
    </linearGradient>
  </defs>
  <rect width="400" height="300" fill="url(#pressGrad)"/>
  <rect x="100" y="60" width="200" height="180" rx="5" fill="white" opacity="0.95"/>
  <rect x="120" y="80" width="80" height="6" rx="3" fill="#4facfe"/>
  <rect x="120" y="100" width="160" height="4" rx="2" fill="#ccc"/>
  <rect x="120" y="110" width="160" height="4" rx="2" fill="#ccc"/>
  <rect x="120" y="120" width="160" height="4" rx="2" fill="#ccc"/>
  <rect x="120" y="140" width="160" height="4" rx="2" fill="#ccc"/>
  <rect x="120" y="150" width="160" height="4" rx="2" fill="#ccc"/>
  <rect x="120" y="160" width="120" height="4" rx="2" fill="#ccc"/>
  <rect x="120" y="180" width="160" height="4" rx="2" fill="#ccc"/>
  <rect x="120" y="190" width="160" height="4" rx="2" fill="#ccc"/>
  <rect x="120" y="200" width="140" height="4" rx="2" fill="#ccc"/>
</svg>
